<?xml version="1.0" encoding="UTF-8" standalone="no"?>
<!-- Created with Inkscape (http://www.inkscape.org/) -->

<svg
   xmlns:dc="http://purl.org/dc/elements/1.1/"
   xmlns:cc="http://creativecommons.org/ns#"
   xmlns:rdf="http://www.w3.org/1999/02/22-rdf-syntax-ns#"
   xmlns:svg="http://www.w3.org/2000/svg"
   xmlns="http://www.w3.org/2000/svg"
   xmlns:sodipodi="http://sodipodi.sourceforge.net/DTD/sodipodi-0.dtd"
   xmlns:inkscape="http://www.inkscape.org/namespaces/inkscape"
   width="130.48129"
   height="172.36563"
   id="svg2"
   version="1.1"
   inkscape:version="0.48.4 r9939"
   viewBox="0 0 130.4813 172.36564"
   sodipodi:docname="red_flag2_bayrak1.svg"
   inkscape:export-filename="/home/heyyo/Calismalarim/Çizim/Vek/bayrak.png"
   inkscape:export-xdpi="300.224"
   inkscape:export-ydpi="300.224">
  <defs
     id="defs4" />
  <sodipodi:namedview
     id="base"
     pagecolor="#ffffff"
     bordercolor="#666666"
     borderopacity="1.0"
     inkscape:pageopacity="0.0"
     inkscape:pageshadow="2"
     inkscape:zoom="3.2434653"
     inkscape:cx="65.240648"
     inkscape:cy="86.182816"
     inkscape:document-units="px"
     inkscape:current-layer="layer1"
     showgrid="false"
     inkscape:window-width="1280"
     inkscape:window-height="749"
     inkscape:window-x="0"
     inkscape:window-y="26"
     inkscape:window-maximized="1"
     units="mm"
     fit-margin-top="0"
     fit-margin-left="0"
     fit-margin-right="0"
     fit-margin-bottom="0" />
  <metadata
     id="metadata7">
    <rdf:RDF>
      <cc:Work
         rdf:about="">
        <dc:format>image/svg+xml</dc:format>
        <dc:type
           rdf:resource="http://purl.org/dc/dcmitype/StillImage" />
        <dc:title></dc:title>
      </cc:Work>
    </rdf:RDF>
  </metadata>
  <g
     inkscape:label="Layer 1"
     inkscape:groupmode="layer"
     id="layer1"
     transform="translate(-51.664107,-32.892776)">
    <g
       id="g8691"
       transform="translate(-7.1973371,0.37880721)" />
    <g
       transform="translate(-7.1973371,1.1364216)"
       id="g8722"
       style="fill:#0000ff" />
    <g
       id="g3008">
      <path
         sodipodi:nodetypes="sssssscsssscsssssssssssssssscccssssssccccscssscccscccsssccsscccsccss"
         style="fill:#ee0000;fill-opacity:1;stroke:none"
         d="m 113.1768,107.31752 c -1.68763,-0.27872 -3.70012,-1.43196 -5.20003,-2.97982 -2.43914,-2.51714 -4.1138,-3.01316 -7.88968,-2.33689 -3.776513,0.67638 -5.66283,0.77178 -11.232995,0.56808 -3.887943,-0.14218 -6.018994,0.18821 -8.610795,1.33499 -2.763765,1.22286 -5.525128,2.127 -7.530546,2.46567 -1.492158,0.25199 -3.728485,0.17364 -4.798548,-0.16811 -0.415163,-0.1326 -0.754843,-0.28218 -0.754843,-0.33241 0,-0.0776 -1.778908,-12.634007 -4.081,-28.805787 C 62.745654,74.726033 61.463241,65.693083 60.228556,56.990027 58.993871,48.286974 57.895513,40.561812 57.787761,39.823 l -0.195913,-1.343293 0.70582,0.473304 c 1.406821,0.943376 2.692749,1.156989 6.895012,1.145367 4.260737,-0.01178 4.12782,-0.042 9.839414,2.23712 5.860854,2.338683 6.772774,2.577051 9.858993,2.577051 2.51612,0 4.427389,-0.268995 10.33723,-1.454878 6.313943,-1.26697 7.367943,-1.452663 8.245353,-1.452663 1.0293,0 1.56643,0.159708 3.38482,1.006447 1.97619,0.920221 2.2287,1.006345 2.95218,1.006915 0.73111,5.82e-4 2.44664,0.278208 3.09102,0.500234 0.58,0.199841 0.63715,0.224464 1.90441,0.820474 2.31455,1.088566 4.07544,1.063786 8.32343,-0.11713 3.50007,-0.972997 3.77771,-1.019664 6.03874,-1.015016 1.7089,0.0035 2.24938,0.04946 3.57852,0.30425 2.98002,0.571244 4.82263,1.358089 6.06101,2.588211 0.82185,0.816369 1.13817,1.465815 1.54726,3.17668 0.60419,2.52681 2.10787,4.559735 4.36889,5.906583 1.49023,0.887702 2.48792,1.176441 4.07024,1.177953 0.88855,8.95e-4 1.45723,-0.05496 1.83995,-0.180575 0.30466,-0.09999 0.57068,-0.165049 0.59116,-0.144569 0.0205,0.02048 -0.11347,0.96219 -0.29766,2.092685 -1.22261,7.503823 -1.59796,9.738103 -1.73554,10.330753 -0.39595,1.70569 -0.30342,2.94307 0.31777,4.24949 0.62115,1.30632 1.40745,1.98787 3.85674,3.34294 1.00615,0.55666 1.63245,0.96958 2.63326,1.7361 0.55718,0.42675 3.07682,3.02861 3.24173,3.34751 0.10011,0.19359 0.21847,0.35233 0.26302,0.35275 0.0446,4.5e-4 0.20635,0.18913 0.35957,0.41936 0.15322,0.23022 0.30418,0.44375 0.33549,0.4745 0.0313,0.0307 0.12161,0.15656 0.20069,0.27957 0.16646,0.25895 2.1487,4.27546 2.1487,4.35382 0,0.27624 2.836,6.04989 3.42053,6.96367 0.2099,0.32812 0.38164,0.62021 0.38164,0.64907 0,0.0621 1.26458,1.8642 1.64727,2.34749 0.40787,0.51509 1.59539,1.87177 2.20241,2.516147 1.12812,1.19757 3.66641,3.28716 5.43209,4.47187 0.39978,0.26825 0.75204,0.51666 0.7828,0.55203 0.0308,0.0354 0.18172,0.13756 0.33548,0.2271 0.15377,0.0896 0.66727,0.39785 1.14113,0.68513 l 0.86155,0.52233 -0.41423,0.0685 c -0.72934,0.12058 -2.29156,0.0721 -3.08348,-0.0957 -1.49392,-0.31651 -2.47764,-0.77233 -4.53001,-2.09905 -4.63312,-2.99501 -7.85418,-3.53598 -14.45858,-2.42828 -2.43449,0.40832 -5.5061,1.03 -8.81543,1.78419 -7.26833,1.65644 -9.09787,1.94483 -11.91922,1.87881 -1.10189,-0.0258 -2.0915,-0.0865 -2.19913,-0.13498 -0.44983,-0.20251 -0.0781,-0.71706 1.57947,-2.1862 0.97952,-0.86817 1.35602,-1.45794 1.35602,-2.12408 0,-0.40139 -0.0625,-0.53914 -0.3808,-0.83936 -0.5665,-0.53427 -1.21268,-0.67554 -3.02997,-0.66239 -1.18901,0.009 -1.80039,0.0688 -2.54172,0.25005 -1.85542,0.45377 -3.47451,1.1365 -5.28627,2.22906 -0.49205,0.29672 -1.02044,0.61261 -1.1742,0.70196 -0.15376,0.0894 -0.4557,0.29152 -0.67097,0.44924 -0.44391,0.32525 -2.04994,1.32444 -3.1245,1.94391 -2.04031,1.17622 -5.16246,1.9164 -6.88415,1.63206 z"
         id="path8724"
         inkscape:connector-curvature="0" />
      <path
         sodipodi:nodetypes="ccccc"
         inkscape:connector-curvature="0"
         id="rect3005"
         d="m 49.13995,45.783596 c -0.109135,-1.189069 2.576668,-1.139875 2.857143,0 l 0,163.214024 c 0.02898,1.5407 -2.878174,0.98167 -2.857143,0 z"
         style="fill:#000000;fill-opacity:1;stroke:none"
         transform="matrix(0.99011627,-0.14024896,0.14024896,0.99011627,0,0)" />
    </g>
  </g>
</svg>
